<?xml version="1.0" encoding="utf-8"?>
<!DOCTYPE svg PUBLIC "-//W3C//DTD SVG 20010904//EN" "http://www.w3.org/TR/2001/REC-SVG-20010904/DTD/svg10.dtd">
<svg version="1.0" xmlns="http://www.w3.org/2000/svg" width="1733px" height="998px" viewBox="0 0 1733 998" preserveAspectRatio="xMidYMid meet">
 <g fill="#020101">
  <path d="M1533.5 995.8 c-0.3 -0.7 -0.4 -20.4 -0.3 -43.8 l0.3 -42.5 48 -0.2 48 -0.2 0.3 -281 0.2 -281.1 -48.2 -0.2 -48.3 -0.3 0 -43.5 0 -43.5 98.9 -0.3 c78.5 -0.2 99.1 0 99.8 1 0.9 1.5 1.1 732.8 0.2 735.2 -0.6 1.4 -10.3 1.6 -99.5 1.6 -78.3 0 -99.1 -0.3 -99.4 -1.2z"/>
  <path d="M1203.4 911.1 c-4.5 -1.1 -5.6 -2.1 -4.9 -4 0.4 -0.9 1.7 -4.9 2.9 -9 l2.3 -7.5 6.1 0.3 c5.7 0.2 6.3 0 9.7 -3.1 2.9 -2.7 3.7 -4.3 4.5 -9.3 0.6 -3.4 1 -34.8 1 -73.2 l0 -67.3 11 0 11 0 0 69.2 c0 73.7 -0.2 78.2 -4.8 87.7 -2.8 5.8 -10 12.8 -14.1 13.8 -1.4 0.3 -3.1 1 -3.7 1.4 -1.5 1.2 -17.3 2 -21 1z"/>
  <path d="M1132.5 860.4 c-12.1 -1.8 -24.5 -8.2 -33.6 -17.4 -19.6 -19.8 -23.5 -53.2 -9.2 -78.9 14.5 -26.1 47 -36.9 76.2 -25.5 28 11 43.3 43 35.9 75.4 -4.6 20.8 -21.2 38.5 -41.6 44.5 -5.3 1.6 -22 2.7 -27.7 1.9z m23.3 -22.3 c10.1 -3.7 19.4 -13.6 22.9 -24.1 2.5 -7.7 2.5 -25.4 0 -32.9 -3.7 -11 -12.4 -20 -23.4 -24.1 -7.8 -3 -21.4 -2.5 -28.6 1 -9.8 4.7 -18 14.5 -21.6 25.9 -1.9 5.8 -1.4 23.9 0.8 29.8 4.3 11.8 12.3 20.3 22.8 24.3 6.8 2.6 20.1 2.6 27.1 0.1z"/>
  <path d="M1317.5 860.1 c-21.1 -3.6 -39.6 -20.3 -45.9 -41.6 -4.8 -15.9 -4.7 -25.9 0.1 -42.5 2.8 -9.6 9.7 -21 16.7 -27.4 20.8 -19 57.3 -19.2 77.2 -0.4 6 5.6 11.2 12.9 13.3 18.8 0.7 1.9 1.7 4.4 2.2 5.5 1.4 3.2 3.9 18.3 3.9 23.5 0 3.4 -0.4 5 -1.6 5.4 -0.9 0.3 -21.8 0.6 -46.5 0.6 l-44.9 0 0 5.4 c0 3 0.5 5.8 1 6.1 0.6 0.3 1 1.4 1 2.4 0 3 6.9 12.4 12.1 16.4 7.1 5.6 13.7 7.7 23.6 7.7 4.6 0 9.1 -0.4 10.1 -0.9 0.9 -0.5 3.4 -1.6 5.5 -2.5 4.4 -1.9 12.8 -9.4 15.7 -14.1 l2 -3.2 10 4.9 10.1 4.9 -1.8 3.2 c-1 1.7 -5.2 6.5 -9.3 10.7 -8 8 -15.6 12.6 -25.2 15.4 -6.8 2 -22.2 2.8 -29.3 1.7z m43.5 -78.6 c0 -3.1 -4.1 -12.2 -7 -15.2 -7.6 -8.1 -15.2 -11.3 -26.6 -11.3 -10.2 0 -17.4 2.8 -23.9 9.4 -5.1 5.1 -9.5 12.8 -9.5 16.6 0 2 0.6 2 33.5 2 28.7 0 33.5 -0.2 33.5 -1.5z"/>
  <path d="M1450 860.1 c-6.5 -1 -7.3 -1.3 -17 -6 -14.6 -7 -27.4 -23.5 -31.2 -40.1 -1.6 -6.8 -1.5 -26.8 0 -33.5 1.8 -7.5 8.5 -20.3 13.9 -26.4 4.9 -5.6 17.7 -14.7 22.2 -15.8 1.4 -0.3 3.1 -0.9 3.6 -1.3 1.6 -1.2 13.7 -3 20.1 -3 14.1 0.1 27.9 5.5 37.6 14.7 5.8 5.6 11.9 13.8 13.2 17.9 0.6 2 0.1 2.4 -9.4 6 -2.5 0.9 -4.9 2 -5.5 2.4 -3.3 2.2 -4.5 1.9 -6.4 -1.9 -2.9 -5.5 -10.4 -12.9 -15.9 -15.4 -3.9 -1.8 -6.5 -2.2 -15.2 -2.2 -9.5 0 -11 0.3 -15.6 2.7 -6 3.2 -14.3 11.9 -17.4 18.3 -1.3 2.6 -2.9 8.1 -3.6 12.3 -3.6 20.3 5.6 40.3 22.1 48.2 5.4 2.6 7.4 3 14.7 3 14.9 0 26.3 -6.3 32.3 -18 0.9 -1.7 2.1 -3 2.8 -3 1.3 0 12.6 4.7 16.5 6.8 l2.3 1.3 -3.2 6 c-5.9 11.1 -18.6 21 -32.8 25.8 -4.5 1.5 -21.2 2.2 -28.1 1.2z"/>
  <path d="M1567.7 857 c-5.1 -1.6 -12.7 -7.2 -15.5 -11.4 -5.8 -8.7 -5.7 -7.2 -6.2 -48.6 l-0.5 -38.5 -10.2 -0.3 -10.3 -0.3 0 -9.9 0 -9.9 10.3 -0.3 10.2 -0.3 0.3 -18.3 0.2 -18.3 10.8 0.3 10.7 0.3 0.3 18.3 0.2 18.2 14.5 0 14.5 0 0 10 0 9.9 -14.2 0.3 -14.3 0.3 -0.3 32 c-0.3 36 0 38.7 5.6 43.6 3.4 3 3.8 3.1 11.5 2.7 l8 -0.3 3.3 9.2 c2.9 8.2 3.1 9.3 1.7 10.5 -1.9 1.5 -26.3 2.2 -30.6 0.8z"/>
  <path d="M873.7 856.4 c-1 -1.1 -0.8 -171.6 0.2 -173.3 0.7 -1.1 6.8 -1.2 33.7 -0.8 20.3 0.3 34.8 0.9 37.9 1.7 14.3 3.4 30.1 15.4 35.9 27.1 5.3 10.9 7 23.8 4.6 34.9 -3.8 17.4 -20.1 33.7 -38.5 38.5 -4.5 1.1 -11.5 1.5 -28.7 1.5 l-22.8 0 -0.2 35.3 -0.3 35.2 -10.6 0.3 c-5.8 0.1 -10.8 -0.1 -11.2 -0.4z m73.2 -94.8 c6.2 -3.2 13.5 -11.3 15.5 -17.3 3.6 -10.4 1.1 -21.3 -6.6 -29.9 -8.2 -8.9 -11.3 -9.8 -37.5 -10.2 l-22.3 -0.4 0 30.1 0 30.1 23 0 c22.5 0 23.2 -0.1 27.9 -2.4z"/>
  <path d="M1007 797.5 l0 -59.5 10.5 0 10.5 0 0 8 c0 9.1 1 10 5 4.4 4.5 -6.3 15.6 -13.2 24 -15 7.5 -1.5 23 0.2 23 2.6 0 0.6 -1.4 5.3 -3.1 10.5 l-3.1 9.4 -10.1 -0.1 c-8.8 -0.1 -10.9 0.2 -15.2 2.3 -6.6 3.1 -13 9.7 -16.3 16.7 l-2.7 5.7 -0.3 37.3 -0.3 37.2 -11 0 -10.9 0 0 -59.5z"/>
  <path d="M1231.5 711.8 c-4.5 -1.6 -9.4 -6.7 -10.6 -11 -3.8 -14.1 12.4 -25.1 24.3 -16.6 3.5 2.4 6.8 8.7 6.8 12.8 0 5.3 -5.2 12.2 -10.9 14.6 -3.9 1.6 -5.4 1.6 -9.6 0.2z"/>
  <path d="M988 657.9 c-1.9 -0.4 -5.7 -1.3 -8.5 -1.9 -12.4 -2.6 -27.2 -9.4 -37.7 -17.2 -26.2 -19.4 -39.1 -52.3 -34.9 -89.3 1.1 -10.4 1.5 -12.1 6.3 -24.5 8.3 -22 27.9 -41.3 50.2 -49.6 3.9 -1.5 8 -3 9.1 -3.4 9.3 -3.6 40.2 -4.9 51.5 -2.2 32.3 7.9 55.1 26.2 66.7 53.5 11.3 26.6 10.8 56.5 -1.3 82.7 -8.4 18 -24.4 33.9 -42.9 42.4 -10.3 4.7 -12 5.4 -19.5 7.2 -3 0.7 -7.3 1.7 -9.5 2.3 -4.7 1.2 -24.4 1.2 -29.5 0z m31.4 -54.2 c7.8 -3.6 13.1 -7.9 17 -14.1 3.1 -4.8 4.1 -7.1 6.4 -15.1 1.4 -4.6 1.5 -16.6 0.2 -22.1 -3.7 -15.4 -14.6 -27.6 -28.6 -31.9 -5.7 -1.7 -18.6 -2 -23.5 -0.4 -16.7 5.3 -27.2 18 -29.8 35.9 -1.1 7.8 -0.1 18.7 2.1 24 4.2 10 9.1 16 16.9 21.1 7.3 4.7 12.8 5.9 24 5.6 7.7 -0.3 10.6 -0.9 15.3 -3z"/>
  <path d="M616.2 651.8 c-1.7 -1.7 -1.7 -175.9 0 -177.6 0.9 -0.9 8.4 -1.2 27.4 -1.2 23 0 26.3 0.2 26.8 1.6 0.8 2 0.8 174.8 0 176.8 -0.5 1.4 -3.8 1.6 -26.8 1.6 -19 0 -26.5 -0.3 -27.4 -1.2z"/>
  <path d="M720.5 651.8 c-0.3 -0.7 -0.4 -59.6 -0.3 -130.8 l0.3 -129.5 28.3 -0.3 c22.2 -0.2 28.2 0 28.2 1 0.1 0.7 0.1 46.8 0 102.4 0 55.5 0.2 101.8 0.6 102.7 0.6 1.6 4.8 1.7 55 1.7 l54.4 0 -0.2 26.8 -0.3 26.7 -82.8 0.3 c-65.7 0.2 -82.9 0 -83.2 -1z"/>
  <path d="M1125.6 651.4 c-0.8 -2 -0.8 -173.2 0 -176.2 l0.6 -2.2 25.2 0.2 25.1 0.3 0.3 11.3 c0.2 10.1 0.4 11.2 2.1 11.2 1 0 3.1 -1.8 4.7 -4.1 3.4 -5 11.3 -12.2 16.9 -15.5 2.3 -1.3 7.5 -3.6 11.6 -5.2 6.9 -2.5 8.5 -2.7 22.9 -2.7 17 0 20.1 0.6 31.6 6.1 11.1 5.3 17.6 11.8 24.6 24.4 5.2 9.5 8 18.8 9.8 33.5 1 7.9 1.3 114.7 0.4 118.3 l-0.6 2.2 -26.7 -0.2 -26.6 -0.3 -0.5 -55.5 c-0.4 -40.1 -0.9 -56.5 -1.8 -59.2 -2.4 -7 -7.3 -13.1 -13.2 -16.1 -5.1 -2.7 -6.1 -2.8 -15 -2.5 -11.1 0.5 -16.3 2.5 -22.5 8.5 -5.2 5.2 -9 12.3 -11.7 22 -2 7.3 -2.2 10.7 -2.7 55.3 l-0.6 47.5 -26.6 0.3 c-23.7 0.2 -26.7 0.1 -27.3 -1.4z"/>
  <path d="M1391.7 652.3 c-0.4 -0.3 -0.7 -47.1 -0.7 -104 l0 -103.3 -36.2 -0.2 -36.3 -0.3 -0.3 -26.7 -0.2 -26.8 102 0 102 0 0 27 0 27 -36.5 0 -36.5 0 0 102.4 c0 56.3 -0.3 103.1 -0.6 104 -0.5 1.4 -4 1.6 -28.3 1.6 -15.3 0 -28.1 -0.3 -28.4 -0.7z"/>
  <path d="M629 453.3 c-7.2 -3.6 -13.5 -10 -16.8 -17.1 -3.5 -7.5 -3.7 -20 -0.4 -27.5 4.4 -9.9 14.5 -17.7 26.7 -20.7 4.4 -1.1 5.9 -1 11 0.5 15.8 4.5 24.4 13.4 27.6 28.3 2.8 13.4 -5.8 29.9 -18.9 36.3 -3.7 1.8 -6.7 2.4 -14.2 2.6 -8.6 0.2 -10 0 -15 -2.4z"/>
 </g>
 <g fill="#270a0a">
  <path d="M586 653 c-1.4 -1.1 -3 -2 -3.7 -2 -1 0 -3.2 -1 -15.6 -7.1 -4.2 -2.1 -8.7 -2.5 -8.7 -0.9 0 0.6 -0.4 1 -1 1 -0.6 0 -1 -8.1 -1 -22.4 0 -12.3 -0.3 -23.2 -0.6 -24.1 -0.7 -1.6 -7.7 -5.5 -10.1 -5.5 -0.7 0 -1.3 -0.4 -1.3 -1 0 -0.5 -0.5 -1 -1 -1 -0.6 0 -4.8 -1.8 -9.5 -4 -4.7 -2.2 -8.6 -4 -8.9 -4 -0.3 0 -8.2 -3.6 -28.1 -13 -3.3 -1.5 -9.1 -4.2 -13 -6 -3.8 -1.8 -9.7 -4.5 -13 -6 -6.2 -2.9 -15.4 -7.1 -24 -11 -2.7 -1.3 -9.7 -4.5 -15.4 -7.2 -5.7 -2.6 -10.5 -4.8 -10.7 -4.8 -0.2 0 -3.2 -1.3 -6.6 -3 -3.4 -1.6 -6.7 -3 -7.5 -3 -0.7 0 -1.3 -0.4 -1.3 -1 0 -0.5 -0.5 -1 -1.1 -1 -0.6 0 -4.3 -1.5 -8.2 -3.4 -4 -1.8 -9 -4.1 -11.2 -5.1 -2.2 -0.9 -7.1 -3.2 -11 -5 -22.3 -10.5 -37.6 -17.5 -38 -17.5 -0.2 0 -4.9 -2.1 -26 -12 -7.4 -3.5 -20.8 -9.6 -25.5 -11.7 -1.9 -0.9 -7.1 -3.3 -11.5 -5.3 -4.4 -2.1 -10.7 -5 -14 -6.5 -3.3 -1.5 -10.7 -5 -16.4 -7.6 -5.7 -2.7 -10.6 -4.9 -11 -4.9 -0.3 0 -2.8 -1.1 -5.5 -2.5 -2.7 -1.4 -5.5 -2.5 -6.2 -2.5 -0.7 0 -1.4 -0.3 -1.6 -0.8 -0.2 -0.4 -3.7 -2.2 -7.8 -4.1 -4.1 -1.8 -12.1 -5.5 -17.7 -8.2 -5.6 -2.7 -10.4 -4.9 -10.6 -4.9 -0.6 0 -15.3 -6.7 -24.2 -11 -3.3 -1.6 -11.2 -5.2 -17.5 -8.1 -6.3 -2.8 -15.1 -6.8 -19.5 -8.9 -4.4 -2 -10.2 -4.7 -13 -6 -2.7 -1.2 -8.6 -3.9 -13 -6 -7.5 -3.5 -13 -6 -25 -11.5 -2.7 -1.3 -7.9 -3.6 -11.5 -5.3 -3.6 -1.6 -10.1 -4.7 -14.5 -6.7 -4.4 -2 -9.5 -4.4 -11.2 -5.2 -3.1 -1.4 -4.7 -5.3 -2.3 -5.3 0.7 0 1 -16 1 -46 l0 -45.9 7.2 -3.4 c4 -1.9 9.6 -4.5 12.3 -5.7 2.8 -1.2 7.5 -3.4 10.5 -4.7 24.9 -11.4 28.4 -13 38 -17.5 14.8 -6.9 27.6 -12.8 36.5 -16.8 2.8 -1.2 8.8 -4 13.5 -6.2 23.8 -11.2 32.6 -15.2 39.3 -18.1 2 -1 5.4 -2.4 7.5 -3.4 2 -0.9 8.4 -3.8 14.2 -6.6 5.8 -2.7 13 -6.1 16 -7.4 3 -1.4 9.7 -4.5 14.9 -6.9 5.1 -2.4 9.5 -4.4 9.7 -4.4 0.2 0 5 -2.2 10.6 -4.9 5.7 -2.6 12.6 -5.8 15.3 -7.1 2.8 -1.2 8.6 -3.9 13 -6 4.4 -2.1 10.3 -4.8 13 -6 2.8 -1.2 8.8 -4 13.3 -6.1 4.6 -2.2 8.6 -3.9 8.8 -3.9 0.2 0 4.7 -2.1 10.1 -4.6 23 -10.8 32.7 -15.3 47.8 -22.1 5.5 -2.5 13.6 -6.2 18 -8.3 4.4 -2.1 10.3 -4.8 13 -6 2.8 -1.2 8.2 -3.7 12 -5.5 14.4 -6.8 24.7 -11.5 25 -11.5 0.2 0 5 -2.2 26 -12 11.4 -5.3 36.9 -17 48 -22 5.1 -2.3 11.7 -5.4 28.8 -13.4 5.4 -2.5 9.9 -4.6 10.1 -4.6 0.2 0 6.1 -2.7 13 -6 7 -3.3 12.9 -6 13.1 -6 0.3 0 0.5 38.9 0.5 86.5 l0 86.4 -5.5 2.6 c-3.1 1.4 -5.8 2.5 -6 2.5 -0.2 0 -2.8 1.1 -5.7 2.4 -11.6 5.2 -14.8 6.6 -15.4 6.6 -0.3 0 -3 1.1 -6 2.5 -3 1.4 -5.7 2.5 -5.9 2.5 -0.2 0 -3 1.2 -6.2 2.6 -6.7 3.1 -9.4 4.2 -18.3 7.9 -3.6 1.5 -8.8 3.7 -11.5 5 -2.8 1.2 -9.1 3.9 -14 6 -5 2 -10.6 4.4 -12.5 5.2 -1.9 0.8 -4.4 1.9 -5.5 2.3 -3.8 1.6 -12 5.2 -16.2 7.1 -2.3 1.1 -4.4 1.9 -4.7 1.9 -0.3 0 -2.9 1.1 -5.8 2.4 -2.9 1.3 -8.2 3.6 -11.8 5.1 -3.6 1.5 -8.9 3.8 -11.8 5.1 -2.9 1.3 -5.5 2.4 -5.8 2.4 -0.3 0 -3 1.1 -6 2.5 -3 1.4 -5.7 2.5 -5.9 2.5 -0.2 0 -3 1.2 -6.2 2.6 -6.4 2.9 -9.3 4.1 -17.3 7.5 -3 1.2 -5.9 2.6 -6.4 3.1 -0.6 0.4 -1.6 0.8 -2.3 0.8 -0.7 0 -3.7 1.1 -6.8 2.5 -3 1.4 -8 3.6 -11 5 -3.1 1.4 -5.8 2.5 -6 2.5 -0.2 0 -2.8 1.1 -5.7 2.4 -2.9 1.3 -10.9 4.7 -17.8 7.6 -6.9 2.9 -14.9 6.3 -17.8 7.6 -2.9 1.3 -5.5 2.4 -5.7 2.4 -0.2 0 -2.8 1.1 -5.7 2.4 -2.9 1.3 -8.2 3.6 -11.8 5.1 -3.6 1.5 -8.4 3.5 -10.7 4.6 -2.4 1 -4.5 1.9 -4.8 1.9 -0.2 0 -2.8 1.1 -5.7 2.5 -2.9 1.3 -9.6 4.2 -14.8 6.4 l-9.5 3.9 -0.7 4.3 c-0.3 2.4 -0.5 5.1 -0.2 5.9 0.4 1.7 0.2 1.6 19.4 9.6 7.4 3.1 15.3 6.4 17.5 7.4 2.2 1 6.9 3 10.5 4.5 3.6 1.5 8.5 3.6 11 4.7 2.5 1 5.4 2.3 6.5 2.8 1.1 0.4 4.1 1.7 6.7 2.9 2.6 1.2 5 2.1 5.3 2.1 0.2 0 2.8 1.1 5.7 2.4 11.8 5.3 15.3 6.8 22.1 9.5 4 1.6 9.7 4 12.7 5.4 3 1.4 11.1 4.8 18 7.7 6.9 2.9 14.9 6.3 17.8 7.6 2.9 1.3 5.5 2.4 5.7 2.4 0.2 0 2.9 1.1 6 2.5 3 1.4 8 3.6 11 5 3.1 1.4 5.8 2.5 6 2.5 0.3 0 2.4 0.8 4.8 1.9 2.3 1 6.7 2.9 9.7 4.1 3 1.2 7.9 3.3 10.8 4.6 2.9 1.3 5.5 2.4 5.7 2.4 0.2 0 3 1.2 6.2 2.6 3.2 1.4 6.7 3 7.8 3.4 3.7 1.6 12 5.2 16.2 7.1 2.3 1.1 4.4 1.9 4.8 1.9 0.5 0 3.7 1.4 15.3 6.6 2.9 1.3 5.5 2.4 5.7 2.4 0.2 0 2.9 1.1 5.9 2.5 3 1.4 5.7 2.5 6 2.5 0.3 0 3.5 1.4 7.1 3 3.6 1.7 6.8 3 7 3 0.2 0 2.8 1.1 5.7 2.4 11.6 5.2 14.8 6.6 15.3 6.6 0.4 0 2.7 0.9 5.3 2.1 8.8 4 10.7 4.8 14.7 6.4 2.2 0.9 5.7 2.3 7.8 3.2 l3.7 1.7 0 86.8 c0 47.7 -0.3 86.8 -0.7 86.8 -0.5 0 -1.9 -0.9 -3.3 -2z"/>
 </g>
 <g fill="#5e5c5c">
  <path d="M1583.3 996.3 c27.3 -0.2 72.1 -0.2 99.5 0 27.3 0.1 4.9 0.2 -49.8 0.2 -54.7 0 -77.1 -0.1 -49.7 -0.2z"/>
  <path d="M1732.5 628.5 c0 -201.8 0.1 -284.3 0.2 -183.2 0.2 101.1 0.2 266.3 0 367 -0.1 100.8 -0.2 18.1 -0.2 -183.8z"/>
  <path d="M873.5 769.5 c0 -47.3 0.1 -66.5 0.2 -42.7 0.2 23.9 0.2 62.6 0 86 -0.1 23.5 -0.2 4 -0.2 -43.3z"/>
  <path d="M895.5 763.7 c-0.3 -0.7 -0.4 -14.3 -0.2 -30.2 l0.2 -29 0.3 29.7 0.2 29.8 21.8 0.3 21.7 0.2 -21.8 0.3 c-16.8 0.1 -21.9 -0.1 -22.2 -1.1z"/>
  <path d="M616.2 651.8 c-1.7 -1.7 -1.7 -175.9 0 -177.6 0.9 -0.9 8.2 -1.1 27.8 -1 l26.5 0.3 -27 0.5 -27 0.5 0 88.5 0 88.5 26.5 0.5 26.5 0.6 -26 0.2 c-19.2 0.1 -26.4 -0.1 -27.3 -1z"/>
  <path d="M720.7 652.3 c-0.4 -0.3 -0.7 -1.1 -0.7 -1.7 0 -0.7 0.4 -0.6 0.8 0.2 0.7 1 17.8 1.2 83.4 1 45.4 -0.2 82.4 0 82.1 0.5 -0.5 0.9 -164.7 1 -165.6 0z"/>
  <path d="M1391.7 652.3 c-0.4 -0.3 -0.7 -47.1 -0.7 -104 l0 -103.3 -36.2 -0.2 -36.3 -0.3 -0.3 -26.7 -0.2 -26.8 102 0 102 0 0 27 c0 14.9 -0.3 27 -0.7 27 -0.5 0 -0.7 -11.9 -0.5 -26.5 l0.3 -26.5 -101.1 0 -101 0 0 26 0 26 36.3 0.2 36.2 0.3 0.3 103.7 0.2 103.8 28.3 0.3 28.2 0.2 -28.1 0.3 c-15.4 0.1 -28.4 -0.1 -28.7 -0.5z"/>
  <path d="M670.5 563 c0 -48.7 0.1 -68.6 0.2 -44.2 0.2 24.3 0.2 64.1 0 88.5 -0.1 24.3 -0.2 4.4 -0.2 -44.3z"/>
  <path d="M1125.5 563.5 c0 -48.4 0.1 -68.3 0.2 -44.3 0.2 24 0.2 63.6 0 88 -0.1 24.4 -0.2 4.7 -0.2 -43.7z"/>
  <path d="M1448.5 548.5 c0 -56.6 0.1 -79.7 0.2 -51.2 0.2 28.5 0.2 74.9 0 103 -0.1 28.2 -0.2 4.9 -0.2 -51.8z"/>
  <path d="M1301.5 593.5 c0 -31.3 0.1 -44 0.2 -28.2 0.2 15.9 0.2 41.5 0 57 -0.1 15.5 -0.2 2.6 -0.2 -28.8z"/>
  <path d="M1583.3 259.3 c27.3 -0.2 72.1 -0.2 99.5 0 27.3 0.1 4.9 0.2 -49.8 0.2 -54.7 0 -77.1 -0.1 -49.7 -0.2z"/>
 </g>
 <g fill="#7da5d6">
  <path d="M1 903.7 l0 -86.5 5.3 -2.2 c2.8 -1.2 7.6 -3.3 10.5 -4.6 2.9 -1.3 5.5 -2.4 5.7 -2.4 0.2 0 3.4 -1.3 7 -3 3.6 -1.6 6.8 -3 7 -3 0.3 0 2.7 -1 5.3 -2.1 6.8 -3.1 9.2 -4.1 23.2 -9.9 11.3 -4.8 15.1 -6.4 24.5 -10.5 1.7 -0.8 5.9 -2.6 9.5 -4 7.5 -3.1 11.6 -4.9 18.5 -8 2.8 -1.3 9.1 -4 14 -6 10.3 -4.3 13.2 -5.5 19.5 -8.3 2.5 -1.1 9 -3.8 14.5 -6.2 5.5 -2.3 11.5 -4.8 13.3 -5.6 7.1 -3.1 10.1 -4.4 19.7 -8.4 15.6 -6.6 16.9 -7.1 18.7 -8.1 1 -0.5 2.5 -0.9 3.3 -0.9 0.8 0 1.5 -0.4 1.5 -1 0 -0.5 0.6 -1 1.4 -1 1.1 0 18.2 -7.2 32.1 -13.4 1.7 -0.8 7.1 -3 12 -5 5 -2 10.8 -4.5 13 -5.5 5.5 -2.6 9.6 -4.3 20 -8.6 5 -2.1 10.8 -4.5 13 -5.5 2.2 -1 5.8 -2.6 8 -3.5 2.2 -0.9 9 -3.7 15 -6.3 l11 -4.8 0.3 -5.6 0.3 -5.5 -4.7 -2.2 c-2.5 -1.2 -6.8 -3.1 -9.4 -4.1 -2.6 -1 -6.9 -2.9 -9.6 -4.1 -2.7 -1.2 -6.2 -2.7 -7.9 -3.4 -1.6 -0.7 -5 -2.2 -7.5 -3.2 -2.5 -1.1 -8.5 -3.7 -13.5 -5.8 -4.9 -2 -10.8 -4.5 -13 -5.5 -5.9 -2.6 -10 -4.4 -20 -8.5 -11.8 -4.9 -15 -6.3 -21 -9 -2.7 -1.2 -9 -3.9 -14 -6 -4.9 -2 -10.6 -4.4 -12.5 -5.2 -25.6 -11.1 -35.8 -15.3 -36.8 -15.3 -0.7 0 -1.2 -0.4 -1.2 -0.9 0 -0.5 -1 -1.1 -2.2 -1.4 -2.1 -0.5 -19.4 -7.5 -27.3 -11.1 -2.7 -1.2 -11.4 -5 -21.5 -9.3 -1.9 -0.8 -4.4 -1.9 -5.5 -2.3 -1.1 -0.4 -4 -1.7 -6.5 -2.8 -8.9 -4 -13.6 -6 -22.5 -9.7 -9.5 -3.9 -12.2 -5 -19.5 -8.3 -2.5 -1.1 -8.5 -3.6 -13.5 -5.7 -10.7 -4.4 -13.2 -5.4 -20.8 -8.9 -3.2 -1.4 -6 -2.6 -6.2 -2.6 -0.2 0 -3 -1.2 -6.2 -2.6 -3.2 -1.4 -7.4 -3.2 -9.3 -4.1 -1.9 -0.8 -4.7 -2.1 -6.2 -2.8 -1.5 -0.7 -4.1 -1.6 -5.8 -2 l-3 -0.7 0 -86.4 c0 -47.5 0.4 -86.4 0.8 -86.4 0.5 0 2.2 0.6 3.8 1.4 1.6 0.8 6.1 2.9 9.9 4.6 3.9 1.7 8.3 3.8 9.9 4.6 3.6 1.7 5.3 1.8 5.9 0.2 0.4 -0.8 0.6 -0.7 0.6 0.3 0.1 0.9 1.6 2.4 3.4 3.2 1.7 0.8 6.8 3.2 11.2 5.2 4.4 2 10.9 5.1 14.5 6.7 3.6 1.7 8.8 4 11.5 5.3 12 5.5 17.5 8 25 11.5 4.4 2.1 10.3 4.8 13 6 2.8 1.3 8.7 4 13.3 6.1 20 9.4 25.4 11.9 25.9 11.9 0.2 0 4.6 2 9.6 4.4 13.4 6.4 24.8 11.6 25.4 11.6 0.2 0 5 2.2 10.6 4.9 5.6 2.7 13.6 6.4 17.7 8.2 4.1 1.9 7.7 3.7 7.8 4.1 0.2 0.5 0.9 0.8 1.6 0.8 0.7 0 3.5 1.1 6.2 2.5 2.7 1.4 5.2 2.5 5.5 2.5 0.4 0 5.3 2.2 11 4.9 5.7 2.6 13.1 6.1 16.4 7.6 3.3 1.5 9.6 4.4 14 6.5 4.4 2 9.6 4.4 11.5 5.3 4.7 2.1 18.1 8.2 25.5 11.7 21.1 9.9 25.8 12 26 12 0.4 0 15.7 7 38 17.5 3.9 1.8 8.8 4.1 11 5 2.2 1 7.2 3.3 11.2 5.1 3.9 1.9 7.6 3.4 8.2 3.4 0.6 0 1.1 0.5 1.1 1 0 0.6 0.6 1 1.3 1 0.8 0 4.1 1.3 7.5 3 3.4 1.6 6.4 3 6.6 3 0.2 0 4.6 2 9.7 4.4 11 5.2 22.4 10.4 29.4 13.6 2.8 1.2 8.2 3.7 12 5.5 3.9 1.8 9.7 4.5 13 6 3.3 1.5 8.7 4 12 5.5 19.6 9.2 27.8 13 28.1 13 0.3 0 4.2 1.8 8.9 4 4.7 2.2 8.9 4 9.5 4 0.5 0 1 0.5 1 1 0 0.6 0.6 1 1.3 1 1.1 0 9.2 3.5 9.9 4.3 0.7 0.7 1.1 48.7 0.5 48.7 -0.5 0 -0.8 20.1 -0.7 44.8 0.1 24.6 0.1 45.2 0.1 45.8 -0.1 0.5 -2 1.8 -4.3 2.9 -2.4 1 -7.9 3.5 -12.3 5.5 -4.4 2.1 -10.7 5 -14 6.5 -5.9 2.7 -12 5.5 -24 11 -3.3 1.5 -10.2 4.7 -15.4 7.1 -5.1 2.4 -10 4.4 -10.7 4.4 -0.8 0 -1.4 0.3 -1.4 0.8 0 0.4 -1.5 1.3 -3.2 2.1 -1.8 0.7 -7 3.1 -11.6 5.2 -4.5 2.1 -8.4 3.9 -8.7 3.9 -0.2 0 -5.6 2.5 -12 5.5 -6.3 3 -11.7 5.5 -12 5.5 -0.2 0 -5.5 2.4 -11.7 5.4 -6.2 2.9 -12.9 6.1 -14.8 6.9 -1.9 0.8 -7.3 3.3 -12 5.5 -8.6 4 -15.4 7.1 -25.7 11.8 -3.2 1.4 -8.9 4.1 -12.8 5.9 -17 8 -22.5 10.5 -23 10.5 -0.3 0 -6.1 2.7 -13 6 -6.9 3.3 -12.7 6 -12.9 6 -0.4 0 -8.8 3.9 -26.6 12.3 -4.7 2.2 -11.2 5.2 -14.5 6.7 -6.9 3.1 -11.8 5.4 -22.5 10.3 -4.1 1.9 -9.7 4.4 -12.5 5.7 -2.7 1.2 -8.8 4 -13.5 6.2 -4.7 2.2 -10.5 4.9 -13 6 -2.5 1.1 -9 4.2 -14.5 6.8 -5.5 2.6 -12.5 5.8 -15.5 7.1 -3 1.2 -7 3.1 -8.8 4.1 -1.8 1 -3.9 1.8 -4.7 1.8 -0.8 0 -1.5 0.4 -1.5 0.8 0 0.4 -1.7 1.4 -3.7 2.2 -2.1 0.7 -7.4 3 -11.8 5.1 -4.4 2 -11.1 5.2 -15 7 -6.4 2.9 -9.3 4.2 -24 10.9 -2.7 1.2 -9.6 4.4 -15.3 7.1 -5.7 2.7 -10.5 4.9 -10.7 4.9 -0.2 0 -5 2.2 -10.7 4.9 -5.7 2.7 -12.5 5.9 -15.3 7.1 -2.7 1.2 -7.7 3.5 -11 5 -3.3 1.5 -8.2 3.8 -11 5 -7.3 3.3 -23.9 11.1 -24.7 11.7 -0.5 0.2 -0.8 -38.5 -0.8 -86z"/>
 </g>
</svg>