<?xml version="1.0" encoding="utf-8"?>
<!-- Generator: Adobe Illustrator 16.0.0, SVG Export Plug-In . SVG Version: 6.00 Build 0)  -->
<!DOCTYPE svg PUBLIC "-//W3C//DTD SVG 1.1//EN" "http://www.w3.org/Graphics/SVG/1.1/DTD/svg11.dtd">
<svg version="1.1" id="Layer_1" xmlns:serif="http://www.serif.com/"
	 xmlns="http://www.w3.org/2000/svg" xmlns:xlink="http://www.w3.org/1999/xlink" x="0px" y="0px" width="24px" height="24px"
	 viewBox="0 0 24 24" enable-background="new 0 0 24 24" xml:space="preserve">
<path id="telegram-1" fill="#FFFFFF" d="M18.384,22.779c0.322,0.228,0.737,0.285,1.107,0.145s0.642-0.457,0.724-0.84
	C21.084,18,23.191,7.663,23.982,3.948c0.061-0.28-0.039-0.571-0.26-0.758c-0.22-0.187-0.524-0.241-0.797-0.14
	C18.732,4.602,5.82,9.447,0.542,11.4C0.207,11.524-0.011,11.846,0,12.199c0.012,0.354,0.25,0.66,0.593,0.764
	c2.367,0.708,5.474,1.693,5.474,1.693s1.452,4.385,2.209,6.615c0.095,0.279,0.314,0.5,0.603,0.576
	c0.288,0.074,0.596-0.005,0.811-0.207c1.216-1.148,3.096-2.924,3.096-2.924S16.357,21.336,18.384,22.779z M7.374,14.102l1.679,5.539
	l0.373-3.508c0,0,6.487-5.851,10.186-9.186c0.107-0.098,0.123-0.262,0.033-0.377c-0.09-0.115-0.254-0.142-0.377-0.064
	C14.982,9.243,7.374,14.102,7.374,14.102z"/>
</svg>
